PathFileType	4	(X/Y/Z)	D:\TRACE\spotREDO_2-26-24\spot_justBody_Motion_3_5-v60.trc
DataRate	CameraRate	NumFrames	NumMarkers	Units	OrigDataRate	OrigDataStartFrame	OrigNumFrames
100.00	100.00	      35	9	mm	100.00	5251	      7000
Frame#	Time	front left toe			Front right toe			aft left toe			aft right toe			Arm			FL body			FR body			AL Body			AR Body			
		X1	Y1	Z1	X2	Y2	Z2	X3	Y3	Z3	X4	Y4	Z4	X5	Y5	Z5	X6	Y6	Z6	X7	Y7	Z7	X8	Y8	Z8	X9	Y9	Z9	

5251	52.500	-243.44330	15.82616	-98.41645	294.78351	19.23951	-182.48274	-249.77101	36.63041	397.06168	287.03836	157.99806	319.23035	-35.10090	791.91632	-361.67822	-115.92651	533.90802	-319.89410	39.42114	538.34338	-334.75439	-41.20216	583.44849	559.93030	100.19308	586.59381	548.36517	
5252	52.510	-243.62999	15.78239	-98.37745	294.56888	19.23363	-182.53421	-249.96625	36.70857	397.03561	283.55380	151.65036	316.35019	-35.14788	791.73071	-361.98389	-115.89366	533.86554	-319.96506	39.21591	538.32056	-335.02585	-41.43339	583.65491	559.64075	100.00747	586.84607	548.10370	
5253	52.520	-243.91092	15.84260	-98.46117	294.31128	19.26058	-182.50887	-250.28790	36.69505	397.01520	280.57492	143.76480	313.84222	-35.22089	791.76825	-362.15140	-116.23043	534.01410	-320.32306	38.88578	538.14917	-335.24982	-41.64578	583.78088	559.44629	99.81104	586.77460	547.89984	
5254	52.530	-244.32170	15.95617	-98.49536	293.81381	19.35832	-182.66693	-250.62482	36.53027	397.00397	277.38562	133.50958	311.51889	-35.19984	791.96124	-362.16833	-116.25319	534.20367	-320.27667	38.74269	538.39014	-335.42398	-41.62598	583.64740	559.34485	99.71864	586.62366	547.75073	
5255	52.540	-244.53459	16.09582	-98.57874	293.92471	19.25890	-182.56056	-250.88376	36.42884	397.06155	275.33206	122.11189	310.13596	-35.15524	792.48401	-362.03741	-116.40511	534.57202	-320.40128	38.68009	538.92328	-335.78516	-41.65003	583.32111	559.16956	99.82967	586.34161	547.61395	
5256	52.550	-244.76151	16.25894	-98.52200	293.70642	19.16278	-182.54855	-251.21143	36.51094	397.06982	271.42288	109.97242	309.19382	-35.16050	792.84180	-362.00732	-116.49390	535.15112	-320.61572	38.49227	539.16858	-335.92355	-41.67882	582.89606	559.20294	99.66842	585.91174	547.54901	
5257	52.560	-244.92055	16.34029	-98.55084	293.53323	19.15925	-182.57388	-251.35991	36.48380	397.07294	269.73926	99.19925	308.89816	-35.21764	793.12555	-361.93719	-116.56165	535.46637	-320.68716	38.41644	539.46301	-335.95959	-41.76498	582.50946	559.17133	99.59483	585.52228	547.52618	
5258	52.570	-244.96135	16.23126	-98.46630	293.40591	19.12297	-182.54002	-251.51099	36.39839	397.09747	267.87753	88.75683	308.39417	-35.35167	793.48895	-361.85693	-116.64257	535.67114	-320.70874	38.41001	539.62885	-335.93140	-41.83317	582.17267	559.17377	98.83544	585.23560	547.40253	
5259	52.580	-245.08994	16.20753	-98.50722	293.26422	19.16281	-182.55789	-251.64290	36.35693	397.05573	266.48965	78.47189	307.93600	-35.61246	793.66541	-361.80219	-116.78384	535.86798	-320.59219	38.32806	539.75317	-335.88089	-41.69453	581.92194	559.12427	99.85140	584.68158	547.39453	
5260	52.590	-245.28258	16.18867	-98.53519	293.11566	19.17694	-182.60489	-251.79932	36.34534	397.03900	265.19632	68.65581	306.95200	-35.75017	793.78064	-361.64166	-116.92353	535.95654	-320.52765	38.27063	539.80316	-335.81638	-41.53566	581.85095	559.16589	99.92164	584.62170	547.49323	
5261	52.600	-245.60112	16.24852	-98.56129	292.88556	19.16183	-182.60744	-251.95737	36.43461	397.05539	264.44153	58.45464	306.29343	-35.74852	793.89319	-361.48114	-116.94819	536.03943	-320.34027	38.20073	539.83203	-335.68887	-41.31522	581.91553	559.29095	100.17204	584.56403	547.59094	
5262	52.610	-245.86478	16.31401	-98.55452	292.76321	19.22548	-182.50630	-252.15356	36.56746	396.96985	263.81714	48.15989	305.54584	-35.74292	793.97327	-361.19785	-116.92206	536.09113	-320.16116	38.10664	539.90955	-335.52518	-41.05308	581.91284	559.54407	100.32850	584.51385	547.70404	
5263	52.620	-246.13223	16.40792	-98.50175	292.69809	19.24756	-182.44284	-252.39233	36.56954	396.98602	263.74200	37.93256	305.55191	-35.71918	794.05273	-360.91733	-117.02418	536.19244	-320.03180	38.09394	539.98657	-335.30200	-40.87387	581.74713	559.84790	100.59573	584.28906	547.82928	
5264	52.630	-246.42450	16.41877	-98.45524	292.44131	19.06707	-182.42662	-252.47093	36.41013	396.95276	264.44391	36.53532	303.62949	-35.48560	794.25537	-360.42526	-116.97482	536.18451	-319.84961	38.25493	540.09625	-335.03180	-41.02006	581.77936	560.10266	100.67783	584.25330	548.20752	
5265	52.640	-246.36848	15.76268	-98.60245	292.82242	18.87478	-182.19769	-251.85127	37.07101	396.88034	265.71964	37.63213	305.09998	-35.45913	794.30750	-360.27203	-116.82020	535.66443	-319.61115	38.66863	539.73138	-334.58694	-42.06916	582.62299	560.00275	99.84872	586.24261	548.55255	
5266	52.650	-246.42697	15.75687	-98.73289	292.70975	19.12389	-182.08238	-252.17570	37.06470	397.05301	264.76797	38.08585	305.07520	-36.29937	793.73376	-360.21918	-116.53645	535.50580	-319.35165	39.02213	539.73285	-334.22134	-42.18361	583.62213	560.47986	98.22754	587.79022	548.92493	
5267	52.660	-246.80382	16.18706	-98.72664	291.79944	19.65411	-182.10092	-253.23885	37.00341	396.97977	264.26077	38.19286	305.11984	-36.35869	793.21082	-360.15927	-116.45009	535.98334	-318.89597	38.99249	540.49652	-334.08710	-42.04568	583.32898	560.74976	97.54360	587.84625	549.20618	
5268	52.670	-247.07814	16.31754	-98.66792	291.86627	19.57675	-182.00778	-253.76019	36.96840	397.00491	263.95898	38.15827	305.41058	-35.52479	793.71887	-359.81894	-116.57958	536.43744	-318.41037	38.88531	540.50293	-333.31296	-42.84162	583.28491	561.26758	98.15129	587.09906	550.17218	
5269	52.680	-247.15894	16.21449	-98.64009	291.54782	19.61863	-181.93781	-253.90810	36.88609	396.86737	263.72275	38.12202	305.44229	-34.29219	794.51129	-359.32224	-116.50943	536.84570	-318.13354	38.72667	540.83398	-332.85748	-43.18324	583.07953	561.66125	97.37254	586.98004	550.73608	
5270	52.690	-247.36014	16.08731	-98.67486	291.15472	19.41845	-181.88762	-254.15909	36.67072	396.88248	263.58649	38.05363	305.46912	-33.95063	794.99396	-358.04984	-116.52552	537.56708	-317.70023	38.57158	541.25220	-332.35184	-43.35134	582.99493	562.30573	97.20882	586.82996	551.05951	
5271	52.700	-247.55296	15.87407	-98.64979	290.94986	19.26107	-181.81235	-254.45709	36.64688	396.87921	263.46066	37.98415	305.41354	-34.25571	795.76611	-357.62527	-116.73351	538.01086	-317.22763	38.71274	541.75598	-331.64478	-43.62456	582.66418	562.76532	96.89806	586.44373	551.43359	
5272	52.710	-247.63785	15.89883	-98.60461	290.80695	19.30611	-181.66075	-254.63443	36.72647	396.88693	263.40567	37.97684	305.47754	-34.57439	796.39502	-356.77658	-116.98729	538.43475	-316.66318	38.72347	542.02618	-331.08374	-44.42845	582.05261	562.59753	96.81237	585.84686	552.34521	
5273	52.720	-247.82222	16.04540	-98.50082	290.68518	19.41883	-181.64067	-254.70657	36.74852	396.89139	263.13776	37.97026	305.53503	-34.96168	796.62097	-356.10730	-117.22842	538.59229	-316.12131	38.45708	542.35742	-330.69955	-44.57392	581.69965	563.16608	96.99440	585.61145	553.03583	
5274	52.730	-247.95990	15.92673	-98.39568	290.27316	19.43876	-181.83385	-254.77901	36.64490	396.88739	262.90485	37.91057	305.50067	-35.31086	796.71588	-355.57645	-117.21884	538.56824	-315.44958	38.13852	542.55145	-330.14526	-44.44858	582.51080	564.77856	96.73815	585.62018	553.39825	
5275	52.740	-248.33797	15.86311	-98.33626	290.16269	19.53456	-181.90138	-254.91174	36.58331	396.91687	262.76202	37.89581	305.53687	-35.35432	796.72223	-354.57587	-117.59541	538.81165	-314.67807	37.75035	542.56561	-329.44119	-44.36665	582.27716	565.36432	96.82072	585.60309	553.97021	
5276	52.750	-248.72595	15.78780	-98.32167	289.98007	19.49481	-181.96422	-255.04662	36.57245	396.94803	262.50229	37.83942	305.47430	-35.64342	796.71863	-354.01355	-118.08638	538.90295	-314.13962	37.57193	542.72400	-328.91129	-44.37897	582.08527	565.91455	97.06233	585.22498	554.81610	
5277	52.760	-248.77426	15.77970	-98.22742	289.76358	19.61146	-181.95799	-255.16269	36.64058	396.97971	262.32407	37.83624	305.46011	-35.97386	796.84375	-353.33350	-118.38070	539.06311	-313.54797	37.28734	542.78271	-328.32294	-44.35703	582.05389	566.72278	97.08088	585.16357	555.31134	
5278	52.770	-248.92151	15.82528	-98.16821	289.64346	19.74301	-181.95369	-255.27541	36.69278	397.20276	262.13165	37.81782	305.46707	-36.25008	796.95886	-352.65533	-118.36594	539.01685	-312.68375	37.02438	542.78656	-327.51773	-44.30463	582.04224	567.42261	97.35910	584.97510	555.87476	
5279	52.780	-249.14767	15.80285	-98.14186	289.58981	19.64167	-181.88190	-255.43822	36.68092	397.28961	261.84671	37.72100	305.42435	-36.79664	797.01672	-351.87698	-118.76167	539.09705	-311.76428	36.82329	542.74408	-326.86499	-44.29923	581.82642	568.12109	97.61398	584.83142	556.56470	
5280	52.790	-249.26041	15.76162	-98.13867	289.46494	19.66425	-181.89497	-255.60146	36.73917	397.39938	261.71500	37.69727	305.38708	-37.07651	797.07355	-350.83932	-119.04857	539.17346	-311.27441	36.53400	542.85736	-326.28366	-44.13385	581.59833	568.81635	97.34632	584.62970	557.41290	
5281	52.800	-249.45485	15.74697	-98.11707	289.18967	19.65352	-181.96956	-255.77142	36.78460	397.45117	261.55640	37.64286	305.38510	-37.20059	797.12445	-350.31161	-119.31028	539.20807	-310.54889	36.40203	542.95782	-325.53973	-44.10757	581.38580	569.48651	97.09943	584.55292	557.78314	
5282	52.810	-249.60646	15.76946	-98.06365	288.97870	19.68993	-181.96278	-255.92723	36.82685	397.55130	261.45499	37.71035	305.42130	-37.44468	797.30042	-349.45303	-119.41611	539.34076	-309.79575	36.26542	543.17841	-324.67444	-44.17368	581.24677	570.00922	97.12373	584.39520	558.66956	
5283	52.820	-249.70180	15.85037	-98.04576	288.84628	19.63360	-181.89256	-256.03665	36.84650	397.59018	261.30048	37.86005	305.51770	-37.47491	797.62360	-348.48587	-119.33431	539.49200	-308.85446	36.06971	543.23218	-324.08774	-44.29921	581.30365	571.09674	96.95093	584.18481	559.50452	
5284	52.830	-249.92586	15.98063	-97.93915	288.67783	19.64412	-181.66330	-256.36801	36.90046	397.71622	261.18518	37.90234	305.61996	-37.58082	797.69720	-347.67685	-119.48460	539.73041	-308.19028	36.01451	543.38989	-323.22662	-44.44043	581.07294	571.93634	96.80936	583.93652	560.14911	
5285	52.840	-250.14641	15.95127	-97.85857	288.38309	19.63588	-181.62932	-256.60406	36.92047	397.69803	261.06653	37.89913	305.65112	-37.67197	798.03857	-346.87878	-119.88361	539.89313	-307.58554	36.07997	543.55475	-322.29755	-44.52750	580.67682	572.52216	96.74048	583.75928	561.04901	
